<?xml version="1.0" encoding="UTF-8"?>
<svg xmlns="http://www.w3.org/2000/svg" viewBox="0 0 800 600">
  <!-- Background Hearts -->
  <g fill="#FFD1DC" opacity="0.3">
    <path d="M600 100c-30-30-75-30-105 0l-15 15-15-15c-30-30-75-30-105 0s-30 75 0 105l120 120 120-120c30-30 30-75 0-105z"/>
    <path d="M200 300c-20-20-50-20-70 0l-10 10-10-10c-20-20-50-20-70 0s-20 50 0 70l80 80 80-80c20-20 20-50 0-70z"/>
  </g>
  
  <!-- Couple Silhouette -->
  <g fill="#FF6B6B">
    <!-- Person 1 -->
    <path d="M350 200c30 0 55 25 55 55s-25 55-55 55-55-25-55-55 25-55 55-55zm-45 130h90c33 0 60 27 60 60v60H245v-60c0-33 27-60 60-60z"/>
    <!-- Person 2 -->
    <path d="M450 200c30 0 55 25 55 55s-25 55-55 55-55-25-55-55 25-55 55-55zm-45 130h90c33 0 60 27 60 60v60H345v-60c0-33 27-60 60-60z"/>
  </g>
  
  <!-- Central Heart -->
  <path fill="#FF4757" d="M400 250c-20-20-50-20-70 0l-10 10-10-10c-20-20-50-20-70 0s-20 50 0 70l80 80 80-80c20-20 20-50 0-70z"/>
</svg>
