<svg xmlns="http://www.w3.org/2000/svg" viewBox="0 0 512 512">
  <path fill="#FF6B6B" d="M256 448l-30.164-27.211C118.718 322.442 48 258.61 48 179.095 48 114.221 98.918 64 162.4 64c36.399 0 70.717 23.515 93.6 50.785C278.283 87.515 312.601 64 348.8 64 412.282 64 464 114.221 464 179.095c0 79.516-70.719 143.348-177.836 241.694L256 448z"/>
  <path fill="#FF4757" d="M348.8 64c-36.199 0-70.517 23.515-93.6 50.785V448l30.164-27.211C393.281 322.442 464 258.61 464 179.095 464 114.221 412.282 64 348.8 64z"/>
</svg>