<?xml version="1.0" encoding="UTF-8"?>
<svg version="1.1" xmlns="http://www.w3.org/2000/svg" width="883" height="828">
<path d="M0 0 C2.13703582 1.86131019 4.23152003 3.76387201 6.3125 5.6875 C6.8187793 6.14995117 7.32505859 6.61240234 7.84667969 7.08886719 C18.54128452 16.95922502 28.40322557 28.81923461 35.3125 41.6875 C35.3125 42.3475 35.3125 43.0075 35.3125 43.6875 C35.9725 43.6875 36.6325 43.6875 37.3125 43.6875 C37.53550781 43.14222656 37.75851562 42.59695312 37.98828125 42.03515625 C51.98345157 17.22365961 90.40115675 1.02055992 116.3125 -6.3125 C142.15318714 -13.15771514 172.44279814 -12.6961222 198.3125 -6.3125 C199.19502441 -6.09819336 200.07754883 -5.88388672 200.98681641 -5.66308594 C248.08943931 6.08904841 288.72285266 32.455349 314.12915039 74.3359375 C342.6447568 122.83714198 351.9350162 178.92800225 337.75390625 233.6796875 C329.92620376 261.73756759 315.99716076 285.92673107 296.41796875 307.359375 C294.56183287 309.41179983 292.77879008 311.50595709 291 313.625 C286.21410377 319.10402603 280.75659112 323.8808552 275.3125 328.6875 C274.81508301 329.12964844 274.31766602 329.57179688 273.80517578 330.02734375 C253.55517465 347.93288755 230.68948952 363.19129443 207.3125 376.6875 C206.71907303 377.03031509 206.12564606 377.37313019 205.51423645 377.72633362 C191.18025119 385.95262972 176.39420712 393.28252994 161.60345459 400.63983154 C158.97926069 401.94654491 156.35729686 403.2576975 153.73534107 404.56889439 C139.75004362 411.56124591 125.72272462 418.45139319 111.60083008 425.16479492 C106.48135757 427.60052738 101.38367129 430.07899876 96.29296875 432.57421875 C95.49177109 432.96684906 94.69057343 433.35947937 93.86509705 433.76400757 C92.24220946 434.55960131 90.61939187 435.35533784 88.99664307 436.1512146 C75.02646506 442.99900959 61.02322684 449.76794204 46.9375 456.375 C46.23046936 456.70674225 45.52343872 457.0384845 44.79498291 457.38027954 C39.30779239 459.95363695 33.81766591 462.52065994 28.32373047 465.07958984 C17.35049084 470.19214473 6.57088059 475.57005657 -4.09326172 481.30126953 C-6.85727447 482.77821894 -9.63313614 484.23126282 -12.41015625 485.68359375 C-25.88609701 492.78736953 -38.69003664 500.60094478 -51.32763672 509.10302734 C-53.26290419 510.4024155 -55.20569369 511.6868392 -57.16015625 512.95703125 C-66.2263024 518.88057929 -74.96534971 525.27274403 -83.6875 531.6875 C-84.61127441 532.36498291 -84.61127441 532.36498291 -85.55371094 533.05615234 C-96.95628177 541.46401051 -107.6911201 550.70077057 -116.6875 561.6875 C-117.56673634 562.74039577 -118.44703395 563.79240581 -119.328125 564.84375 C-121.79002194 567.78445648 -124.24099801 570.73397647 -126.6875 573.6875 C-126.6875 564.10742056 -113.86699038 552.69498343 -107.6875 545.6875 C-106.50607422 544.33785156 -106.50607422 544.33785156 -105.30078125 542.9609375 C-97.9212778 534.64128788 -90.14021154 526.90840935 -81.6875 519.6875 C-80.66982945 518.79511797 -79.65296778 517.90181303 -78.63671875 517.0078125 C-64.76159395 504.86657601 -49.84229249 494.1643447 -34.6875 483.6875 C-34.08147949 483.26791016 -33.47545898 482.84832031 -32.85107422 482.41601562 C-6.4475472 464.23293797 21.75230845 448.48781803 50.02587891 433.44189453 C53.30844082 431.68966679 56.58317911 429.9236728 59.85546875 428.15234375 C70.5461874 422.36627023 81.26450933 416.64614064 92.0625 411.0625 C100.70044856 406.59526643 109.27311815 402.0275317 117.79614258 397.3449707 C124.05744283 393.90744904 130.34676489 390.52576638 136.65112305 387.16796875 C175.81734743 366.30522998 216.07042987 344.74157 248.6484375 314.1640625 C250.82410937 312.1415171 253.03414473 310.21581736 255.3125 308.3125 C278.97894468 287.68398404 298.07412987 259.31029455 305.3125 228.6875 C305.55806641 227.6979834 305.55806641 227.6979834 305.80859375 226.68847656 C308.59290643 214.94719107 308.5979514 203.06131843 308.625 191.0625 C308.62867584 190.28225464 308.63235168 189.50200928 308.63613892 188.69812012 C308.67395163 173.29884195 307.43173905 158.38367637 303.5 143.4375 C303.23356689 142.40665283 302.96713379 141.37580566 302.69262695 140.3137207 C300.72298939 132.86744384 298.4668444 125.72541896 295.3125 118.6875 C295.01537109 117.99946289 294.71824219 117.31142578 294.41210938 116.60253906 C283.09523245 90.52015112 265.77222884 65.94489729 241.3125 50.6875 C240.75643066 50.33977539 240.20036133 49.99205078 239.62744141 49.63378906 C216.6594799 35.47604535 190.06589289 28.23714899 163.125 28.4375 C161.86574707 28.44064209 160.60649414 28.44378418 159.30908203 28.44702148 C150.61124176 28.52331833 142.1277625 29.11255521 133.5234375 30.34765625 C130.3125 30.6875 130.3125 30.6875 127.3125 29.6875 C109.0544592 34.02112058 91.50481374 43.92262961 77.6875 56.4375 C77.19741455 56.87803711 76.7073291 57.31857422 76.20239258 57.77246094 C66.96076748 66.44376476 59.60640872 76.76496279 52.6875 87.3125 C51.91792567 88.47558375 51.14822904 89.6385866 50.37841797 90.80151367 C43.53926602 101.17660973 37.01903659 111.74234894 30.5703125 122.36328125 C28.23685779 126.20306786 25.85166914 129.98082345 23.3125 133.6875 C21.52868782 130.44029754 20.53773539 127.22915256 19.578125 123.65625 C19.25465088 122.46306152 18.93117676 121.26987305 18.59790039 120.04052734 C18.0853772 118.13327881 18.0853772 118.13327881 17.5625 116.1875 C16.84028598 113.5434331 16.11329954 110.90068229 15.38671875 108.2578125 C14.41886231 104.73152057 13.45230123 101.20494066 12.49853516 97.67480469 C5.0141679 70.13353629 -8.58374143 43.09317843 -33.6875 27.6875 C-45.09884232 21.29079829 -56.80760409 16.17385477 -69.6875 13.6875 C-70.74324219 13.46578125 -71.79898438 13.2440625 -72.88671875 13.015625 C-106.66750742 7.20893891 -142.93076985 12.57548361 -171.6875 31.6875 C-175.53666736 34.50372624 -179.13162163 37.51201792 -182.6875 40.6875 C-183.54988281 41.43 -184.41226563 42.1725 -185.30078125 42.9375 C-208.23424393 62.9825296 -225.08846214 92.2485917 -232.6875 121.6875 C-233.0071875 122.87085938 -233.326875 124.05421875 -233.65625 125.2734375 C-235.90507652 135.37233438 -236.00279388 145.51048091 -236.0625 155.8125 C-236.07044586 156.53298523 -236.07839172 157.25347046 -236.08657837 157.99578857 C-236.19956676 171.35120605 -234.3607969 183.92545646 -230 196.625 C-229.61871948 197.74720947 -229.61871948 197.74720947 -229.22973633 198.89208984 C-226.4208726 206.86384856 -222.70398132 214.26715784 -218.6875 221.6875 C-218.35411621 222.3180127 -218.02073242 222.94852539 -217.67724609 223.59814453 C-205.32112809 246.92950813 -189.38545646 268.45306346 -172.96972656 289.06689453 C-170.50043022 292.18783686 -168.08785504 295.35253572 -165.66943359 298.51293945 C-163.22140079 301.70687971 -160.7529654 304.88341776 -158.265625 308.046875 C-151.43779444 316.74253194 -144.82945419 325.49081727 -138.6875 334.6875 C-139.0175 335.3475 -139.3475 336.0075 -139.6875 336.6875 C-146.29665251 328.53152456 -152.77956677 320.30689438 -159.04394531 311.8828125 C-162.85820102 306.76426379 -166.75580411 301.71626327 -170.6875 296.6875 C-176.06047603 289.80847916 -181.34774835 282.87359691 -186.55859375 275.87109375 C-188.79743712 272.86509929 -191.06535088 269.88327664 -193.34765625 266.91015625 C-222.04497984 229.39191897 -243.26020056 189.0763045 -239.6875 140.6875 C-237.78264126 127.2039847 -234.8229021 111.9583042 -228.6875 99.6875 C-230.86948048 100.50253757 -230.86948048 100.50253757 -231.49365234 102.68676758 C-231.75098145 103.55970459 -232.00831055 104.4326416 -232.2734375 105.33203125 C-232.56275146 106.30841553 -232.85206543 107.2847998 -233.15014648 108.29077148 C-244.97002027 149.86750174 -244.79178343 187.06062587 -223.6875 225.6875 C-223.00353158 226.97896831 -222.31994067 228.27063662 -221.63671875 229.5625 C-214.86259716 242.16340133 -206.72475199 253.90065677 -198.22265625 265.390625 C-197.6706958 266.14545166 -197.11873535 266.90027832 -196.55004883 267.67797852 C-195.50797142 269.09775969 -194.45262173 270.50793619 -193.3815918 271.90600586 C-190.40861346 275.96330068 -189.36635317 278.72383333 -189.02099609 283.70727539 C-188.38633047 287.47577677 -186.09223615 290.28446929 -183.875 293.3125 C-183.38507568 294.0019873 -182.89515137 294.69147461 -182.39038086 295.40185547 C-177.69390966 301.90076421 -172.53519318 307.95954102 -167.21679688 313.95214844 C-164.60624707 316.91443899 -162.05819317 319.93002135 -159.5 322.9375 C-155.28024536 327.89634648 -150.9436509 332.71040529 -146.4296875 337.40625 C-144.41247618 340.04762088 -143.5748866 342.50388622 -142.6875 345.6875 C-148.70801965 340.98855783 -153.33317054 335.48529427 -158.23828125 329.65625 C-164.60512409 322.12879051 -171.18534209 314.85847865 -177.99194336 307.72485352 C-182.35146944 303.14958015 -186.55474984 298.46805336 -190.6875 293.6875 C-191.63756237 292.60506618 -192.58805824 291.52301264 -193.5390625 290.44140625 C-201.33902724 281.49954225 -208.63112734 272.22535294 -215.6875 262.6875 C-216.45344482 261.65302734 -216.45344482 261.65302734 -217.23486328 260.59765625 C-236.95337661 233.77388628 -251.98608374 205.70758548 -257.6875 172.6875 C-257.98140625 171.05167969 -257.98140625 171.05167969 -258.28125 169.3828125 C-263.43271477 122.52429638 -246.64026839 75.79704666 -218.6875 38.6875 C-218.1301416 37.94322754 -217.5727832 37.19895508 -216.99853516 36.43212891 C-215.56334334 34.5158766 -214.12624224 32.60108716 -212.6875 30.6875 C-229.43085263 48.60776193 -240.80851486 69.38137879 -250.6875 91.6875 C-250.98140625 92.34363281 -251.2753125 92.99976563 -251.578125 93.67578125 C-263.93518428 121.82889273 -265.25907703 155.03290877 -258.46484375 184.77734375 C-257.6875 188.6875 -257.6875 188.6875 -258.6875 191.6875 C-272.39175399 147.92524892 -262.52829456 103.54184432 -242.18457031 63.57348633 C-227.18262643 35.01560838 -205.97311705 13.03794872 -177.6875 -2.3125 C-176.56214844 -2.92351562 -175.43679688 -3.53453125 -174.27734375 -4.1640625 C-160.15799288 -11.5236323 -145.29427468 -16.28205831 -129.6875 -19.3125 C-128.5325 -19.539375 -127.3775 -19.76625 -126.1875 -20 C-105.41762464 -23.279454 -82.21843316 -22.7493366 -61.6875 -18.3125 C-60.15802734 -17.98765625 -60.15802734 -17.98765625 -58.59765625 -17.65625 C-35.26298418 -11.89967892 -15.46982797 -0.26878082 1.77685547 16.22851562 C4.17133575 18.50346223 6.61319145 20.72162484 9.0625 22.9375 C9.86171875 23.66453125 10.6609375 24.3915625 11.484375 25.140625 C13.0406048 26.79515704 13.0406048 26.79515704 14.3125 26.6875 C-3.03470238 0.30954814 -34.32572989 -15.83889415 -64.58984375 -22.72265625 C-87.96848464 -27.17432684 -111.50395356 -26.44535522 -134.6875 -21.3125 C-135.44095703 -21.15233398 -136.19441406 -20.99216797 -136.97070312 -20.82714844 C-167.05268252 -14.35746246 -193.26616538 0.68721039 -214.6875 22.6875 C-215.45719116 23.43410889 -215.45719116 23.43410889 -216.24243164 24.19580078 C-240.63959862 47.98364103 -257.65871492 84.35673399 -263.6875 117.6875 C-263.86700195 118.63625 -264.04650391 119.585 -264.23144531 120.5625 C-266.04853475 131.3945323 -265.91365523 142.11101443 -265.8125 153.0625 C-265.80244313 154.97395361 -265.7933221 156.88541238 -265.78515625 158.796875 C-265.7633733 163.42721349 -265.72899499 168.05729794 -265.6875 172.6875 C-276.52397017 153.72642757 -267.3219711 117.81158746 -262.1875 97.94140625 C-253.66405734 66.98633578 -237.46658021 40.04097155 -215.6875 16.6875 C-214.99011719 15.93597656 -214.29273438 15.18445313 -213.57421875 14.41015625 C-192.42210452 -7.59268287 -163.74733883 -20.52804532 -134.6875 -28.3125 C-133.97053955 -28.5069873 -133.2535791 -28.70147461 -132.51489258 -28.90185547 C-89.16608351 -40.25774123 -34.45622376 -29.00220151 0 0 Z " fill="#D83359" transform="translate(442.6875,138.3125)"/>
<path d="M0 0 C0.99 0 1.98 0 3 0 C2.98428955 1.07258057 2.9685791 2.14516113 2.95239258 3.25024414 C2.89729278 7.30387592 2.86336499 11.35747609 2.83520508 15.41137695 C2.82029787 17.15199383 2.79996492 18.89257438 2.77368164 20.63305664 C2.56188928 35.03909002 3.97074998 48.20134727 8.6875 61.9375 C8.94168701 62.68563965 9.19587402 63.4337793 9.45776367 64.20458984 C12.2666274 72.17634856 15.98351868 79.57965784 20 87 C20.33338379 87.6305127 20.66676758 88.26102539 21.01025391 88.91064453 C33.36637191 112.24200813 49.30204354 133.76556346 65.71777344 154.37939453 C68.18706978 157.50033686 70.59964496 160.66503572 73.01806641 163.82543945 C75.46609921 167.01937971 77.9345346 170.19591776 80.421875 173.359375 C87.24970556 182.05503194 93.85804581 190.80331727 100 200 C99.67 200.66 99.34 201.32 99 202 C92.39084749 193.84402456 85.90793323 185.61939438 79.64355469 177.1953125 C75.82929898 172.07676379 71.93169589 167.02876327 68 162 C62.62702397 155.12097916 57.33975165 148.18609691 52.12890625 141.18359375 C49.89006288 138.17759929 47.62214912 135.19577664 45.33984375 132.22265625 C19.95030726 99.02894565 -1.25921071 62.6033476 -1.125 19.8125 C-1.12886719 18.56791016 -1.13273438 17.32332031 -1.13671875 16.04101562 C-1.13542969 14.83767578 -1.13414062 13.63433594 -1.1328125 12.39453125 C-1.13168457 11.31018799 -1.13055664 10.22584473 -1.12939453 9.10864258 C-0.99984927 5.99637884 -0.57823536 3.05798649 0 0 Z " fill="#DB456B" transform="translate(204,273)"/>
<path d="M0 0 C1.64619113 0.71573527 3.30728055 1.4025696 5 2 C4.67 2.99 4.34 3.98 4 5 C3.00871094 4.43152344 2.01742187 3.86304688 0.99609375 3.27734375 C-0.33565297 2.51773012 -1.66769879 1.75864068 -3 1 C-3.63147949 0.63922363 -4.26295898 0.27844727 -4.91357422 -0.09326172 C-14.9537738 -5.77634554 -24.746017 -10.34088718 -36 -13 C-37.0219043 -13.24339111 -37.0219043 -13.24339111 -38.06445312 -13.49169922 C-66.74075191 -19.92991366 -96.88321452 -16.78917194 -124 -6 C-124.66 -6.66 -125.32 -7.32 -126 -8 C-84.90515505 -23.56357958 -37.75644192 -26.09553182 0 0 Z " fill="#DE577B" transform="translate(413,166)"/>
<path d="M0 0 C0.99 0 1.98 0 3 0 C2.98428955 1.07258057 2.9685791 2.14516113 2.95239258 3.25024414 C2.89729278 7.30387592 2.86336499 11.35747609 2.83520508 15.41137695 C2.82029787 17.15199383 2.79996492 18.89257438 2.77368164 20.63305664 C2.60831864 31.88098288 3.33380291 42.0521296 6 53 C6.34149469 54.66501359 6.6780738 56.33109245 7 58 C6.01 58 5.02 58 4 58 C3.34555189 55.68964597 2.70140725 53.37715704 2.0625 51.0625 C1.88009766 50.42248047 1.69769531 49.78246094 1.50976562 49.12304688 C-1.14582287 39.418078 -1.15641588 29.82892996 -1.125 19.8125 C-1.12886719 18.56791016 -1.13273438 17.32332031 -1.13671875 16.04101562 C-1.13542969 14.83767578 -1.13414062 13.63433594 -1.1328125 12.39453125 C-1.13168457 11.31018799 -1.13055664 10.22584473 -1.12939453 9.10864258 C-0.99984927 5.99637884 -0.57823536 3.05798649 0 0 Z " fill="#DA4469" transform="translate(204,273)"/>
<path d="M0 0 C1.1171875 1.4609375 1.1171875 1.4609375 2 4 C1.47437368 6.9302157 0.83819089 9.74085384 0.125 12.625 C-4.39080552 33.49559783 -3.51014785 56.35279781 1.22265625 77.08984375 C2 81 2 81 1 84 C-7.58898987 56.57249235 -7.15336749 27.74262524 0 0 Z " fill="#E06588" transform="translate(183,246)"/>
<path d="M0 0 C0.66 0.66 1.32 1.32 2 2 C1.83251953 4.02905273 1.83251953 4.02905273 1.2578125 6.49609375 C1.05704102 7.39827637 0.85626953 8.30045898 0.64941406 9.22998047 C0.43510742 10.14408691 0.22080078 11.05819336 0 12 C-4.91715986 33.60131993 -4.41325826 54.97651376 -4 77 C-15.32830227 57.17834623 -4.99300907 20.7577382 0 0 Z " fill="#E1698B" transform="translate(181,234)"/>
<path d="M0 0 C4.61724973 0.85005829 6.85212634 3.61795898 9.875 7 C10.40512695 7.58289795 10.93525391 8.1657959 11.48144531 8.76635742 C15.46237914 13.21768739 18.96386513 17.84656055 22 23 C21.67 23.66 21.34 24.32 21 25 C0 2.78353659 0 2.78353659 0 0 Z " fill="#DA4369" transform="translate(278,459)"/>
<path d="M0 0 C1.32755176 3.98265527 0.05273942 6.56733624 -1.25 10.375 C-3.5987225 17.5183842 -5.44912817 24.63651097 -7 32 C-7.66 32 -8.32 32 -9 32 C-8.39636472 24.75637659 -6.91472074 18.00551854 -5 11 C-4.73832031 10.02546875 -4.47664062 9.0509375 -4.20703125 8.046875 C-2.75324841 2.88114917 -2.75324841 2.88114917 -2 1 C-1.34 0.67 -0.68 0.34 0 0 Z " fill="#DB486D" transform="translate(214,241)"/>
<path d="M0 0 C0.99 0 1.98 0 3 0 C2.3661521 5.517155 0.49435691 10.26747809 -1.5625 15.375 C-1.89185547 16.20644531 -2.22121094 17.03789062 -2.56054688 17.89453125 C-3.36844762 19.93184618 -4.1817011 21.96684442 -5 24 C-5.66 24 -6.32 24 -7 24 C-6.46870624 18.02798909 -5.15389059 13.05383257 -2.9375 7.5 C-2.65583984 6.77296875 -2.37417969 6.0459375 -2.08398438 5.296875 C-1.39741552 3.52808745 -0.69986318 1.76356959 0 0 Z " fill="#DB466B" transform="translate(189,212)"/>
<path d="M0 0 C-0.99 0.495 -0.99 0.495 -2 1 C-2 1.66 -2 2.32 -2 3 C-4.91583585 3.98165279 -7.8328088 4.95988301 -10.75 5.9375 C-11.575 6.21529297 -12.4 6.49308594 -13.25 6.77929688 C-14.44882812 7.18051758 -14.44882812 7.18051758 -15.671875 7.58984375 C-16.4050293 7.83597412 -17.13818359 8.08210449 -17.89355469 8.33569336 C-19.91509473 8.97322355 -21.93847426 9.50906354 -24 10 C-24.33 9.01 -24.66 8.02 -25 7 C-22.22927957 6.02051288 -19.45842883 5.04139725 -16.6875 4.0625 C-15.50897461 3.64581055 -15.50897461 3.64581055 -14.30664062 3.22070312 C-13.54931641 2.95322266 -12.79199219 2.68574219 -12.01171875 2.41015625 C-11.31522217 2.16402588 -10.61872559 1.91789551 -9.90112305 1.66430664 C-6.38959676 0.43727915 -3.71867925 -0.10050484 0 0 Z " fill="#EB9EB5" transform="translate(575,167)"/>
<path d="M0 0 C0.66 0.66 1.32 1.32 2 2 C1.52949219 3.0621875 1.05898437 4.124375 0.57421875 5.21875 C-0.05480227 6.64578275 -0.68370202 8.07286896 -1.3125 9.5 C-1.62123047 10.19609375 -1.92996094 10.8921875 -2.24804688 11.609375 C-4.33406398 16.35231915 -6.21910764 21.1340541 -8 26 C-9.19308684 22.00369651 -8.55279567 19.73391141 -7.25 15.75 C-6.87617188 14.6053125 -6.50234375 13.460625 -6.1171875 12.28125 C-5.56417969 10.65703125 -5.56417969 10.65703125 -5 9 C-4.71382812 8.1440625 -4.42765625 7.288125 -4.1328125 6.40625 C-2.28241758 1.14120879 -2.28241758 1.14120879 0 0 Z " fill="#DB446A" transform="translate(193,222)"/>
<path d="M0 0 C0.66 0 1.32 0 2 0 C0.60247022 5.76852717 -0.81151057 11.51465161 -2.5625 17.1875 C-3.96741771 21.7497854 -5.02050459 26.32856036 -6 31 C-8 28 -8 28 -7.93359375 26.1171875 C-2.76733781 2.76733781 -2.76733781 2.76733781 0 0 Z " fill="#F5D2DD" transform="translate(212,238)"/>
<path d="M0 0 C2.36394036 3.62623861 1.9566559 5.92481421 1.1015625 10.078125 C0.86953125 11.23828125 0.6375 12.3984375 0.3984375 13.59375 C0.14320313 14.8003125 -0.11203125 16.006875 -0.375 17.25 C-0.6225 18.47203125 -0.87 19.6940625 -1.125 20.953125 C-1.73808788 23.9714038 -2.36349734 26.98658741 -3 30 C-3.33 30 -3.66 30 -4 30 C-4.2773792 22.844002 -3.53099774 16.35759106 -2 9.375 C-1.80921875 8.46621094 -1.6184375 7.55742187 -1.421875 6.62109375 C-0.95680369 4.41200502 -0.48278453 2.2052724 0 0 Z " fill="#DD577A" transform="translate(183,246)"/>
<path d="M0 0 C0.99 0 1.98 0 3 0 C2.67 9.57 2.34 19.14 2 29 C1.67 29 1.34 29 1 29 C0.67 24.05 0.34 19.1 0 14 C-0.33 14 -0.66 14 -1 14 C-1.08333357 9.1666528 -0.95261487 4.76307437 0 0 Z " fill="#E37897" transform="translate(204,273)"/>
<path d="M0 0 C8.37495014 0.38612648 16.00269231 1.45175967 24 4 C24 4.33 24 4.66 24 5 C15.86894139 4.50877547 7.98079085 3.64733759 0 2 C0 1.34 0 0.68 0 0 Z " fill="#DB496E" transform="translate(355,147)"/>
<path d="M0 0 C0 4.35123805 -2.61319609 6.64776672 -5.25 9.875 C-5.74113281 10.48730469 -6.23226562 11.09960938 -6.73828125 11.73046875 C-8.15277695 13.49198739 -9.57605596 15.2461177 -11 17 C-12.33441076 18.66580416 -13.66821403 20.33209662 -15 22 C-15 17.69718848 -14.80702914 17.26827389 -12.2265625 14.1796875 C-11.6490625 13.47972656 -11.0715625 12.77976563 -10.4765625 12.05859375 C-9.56003906 10.97771484 -9.56003906 10.97771484 -8.625 9.875 C-7.72007812 8.78251953 -7.72007812 8.78251953 -6.796875 7.66796875 C-4.59949336 5.02622772 -2.43066488 2.43066488 0 0 Z " fill="#F7DEE6" transform="translate(230,168)"/>
<path d="M0 0 C1.44715727 3.87186448 0.5441918 6.8232328 -0.4375 10.75 C-0.72496094 11.92046875 -1.01242188 13.0909375 -1.30859375 14.296875 C-1.53675781 15.18890625 -1.76492187 16.0809375 -2 17 C-2.66 17 -3.32 17 -4 17 C-3.58411954 10.80481527 -2.39748106 5.73310689 0 0 Z " fill="#DA3F65" transform="translate(209,256)"/>
<path d="M0 0 C3.33633368 2.99119571 5.24527707 5.87640111 7 10 C7 10.99 7 11.98 7 13 C6.34 13 5.68 13 5 13 C4.15930585 11.39967863 3.32768495 9.79458829 2.5 8.1875 C1.80390625 6.84751953 1.80390625 6.84751953 1.09375 5.48046875 C0 3 0 3 0 0 Z " fill="#D93B62" transform="translate(216,349)"/>
<path d="M0 0 C0.33 0.66 0.66 1.32 1 2 C-1.97 5.63 -4.94 9.26 -8 13 C-8 9.41215039 -7.11614178 8.29978721 -5.125 5.375 C-4.59132813 4.57835937 -4.05765625 3.78171875 -3.5078125 2.9609375 C-2 1 -2 1 0 0 Z " fill="#DB496F" transform="translate(324,699)"/>
<path d="M0 0 C0.66 0.33 1.32 0.66 2 1 C0.515 7.435 0.515 7.435 -1 14 C-3 11 -3 11 -2.79296875 8.5546875 C-2.59316406 7.67039063 -2.39335937 6.78609375 -2.1875 5.875 C-1.99542969 4.98554688 -1.80335938 4.09609375 -1.60546875 3.1796875 C-1 1 -1 1 0 0 Z " fill="#F5D4DF" transform="translate(199,246)"/>
<path d="M0 0 C2.97 0.99 5.94 1.98 9 3 C9 4.32 9 5.64 9 7 C2.25 3.375 2.25 3.375 0 0 Z " fill="#DB486F" transform="translate(408,164)"/>
<path d="M0 0 C1.89213369 2.38573379 3.02391783 4.07175348 4 7 C3.01 7.33 2.02 7.66 1 8 C0.26919734 6.02253397 -0.39421747 4.01927511 -1 2 C-0.67 1.34 -0.34 0.68 0 0 Z " fill="#DC4F74" transform="translate(223,360)"/>
</svg>
